<?xml version="1.0" encoding="UTF-8" standalone="no"?>
<!-- Created with Inkscape (http://www.inkscape.org/) -->

<svg
   width="210mm"
   height="297mm"
   viewBox="0 0 210 297"
   version="1.1"
   id="svg1"
   inkscape:version="1.3.2 (091e20e, 2023-11-25, custom)"
   sodipodi:docname="DeckelundBoden.svg"
   xmlns:inkscape="http://www.inkscape.org/namespaces/inkscape"
   xmlns:sodipodi="http://sodipodi.sourceforge.net/DTD/sodipodi-0.dtd"
   xmlns="http://www.w3.org/2000/svg"
   xmlns:svg="http://www.w3.org/2000/svg">
  <sodipodi:namedview
     id="namedview1"
     pagecolor="#ffffff"
     bordercolor="#000000"
     borderopacity="0.25"
     inkscape:showpageshadow="2"
     inkscape:pageopacity="0.0"
     inkscape:pagecheckerboard="0"
     inkscape:deskcolor="#d1d1d1"
     inkscape:document-units="mm"
     inkscape:zoom="0.5"
     inkscape:cx="314"
     inkscape:cy="612"
     inkscape:window-width="1440"
     inkscape:window-height="830"
     inkscape:window-x="-6"
     inkscape:window-y="-6"
     inkscape:window-maximized="1"
     inkscape:current-layer="layer1"
     showguides="true" />
  <defs
     id="defs1" />
  <g
     inkscape:label="Ebene 1"
     inkscape:groupmode="layer"
     id="layer1">
    <path
       id="rect1"
       style="fill:none;stroke:#ff0000;stroke-width:0.01"
       d="m 45.005,5.0050001 h 60 c 22.16,0 40,17.8399999 40,39.9999999 v 60 c 0,22.16 -17.84,40 -40,40 h -60 c -22.16,0 -39.9999999,-17.84 -39.9999999,-40 v -60 C 5.0050001,22.845 22.845,5.0050001 45.005,5.0050001 Z" />
    <path
       id="rect2"
       style="fill:none;stroke:#ff0000;stroke-width:0.01"
       d="m 5.0050001,55.004997 h 3 v 13 h -3 z" />
    <path
       id="rect2-4"
       style="fill:none;stroke:#ff0000;stroke-width:0.01"
       d="m 5.0050001,82.005005 h 3 v 13 h -3 z" />
    <path
       id="rect2-1"
       style="fill:none;stroke:#ff0000;stroke-width:0.01"
       d="m 142.005,55.004997 h 3 v 13 h -3 z" />
    <path
       id="rect2-4-6"
       style="fill:none;stroke:#ff0000;stroke-width:0.01"
       d="m 142.005,82.005005 h 3 v 13 h -3 z" />
    <path
       id="rect5"
       style="fill:none;stroke:#ff0000;stroke-width:0.01"
       d="m 55.004997,142.005 h 13 v 3 h -13 z" />
    <path
       id="rect5-7"
       style="fill:none;stroke:#ff0000;stroke-width:0.01"
       d="m 82.005005,142.005 h 13 v 3 h -13 z" />
    <path
       id="rect5-8"
       style="fill:none;stroke:#ff0000;stroke-width:0.01"
       d="m 55.004997,5.0050001 h 13 v 3 h -13 z" />
    <path
       id="rect5-7-8"
       style="fill:none;stroke:#ff0000;stroke-width:0.01"
       d="m 82.005005,5.0050001 h 13 v 3 h -13 z" />
    <path
       id="rect1-8"
       style="fill:none;stroke:#ff0000;stroke-width:0.01"
       d="m 45.05,150.05 h 60 c 22.16,0 40,17.84 40,40 v 60 c 0,22.16 -17.84,40 -40,40 h -60 c -22.16,0 -39.9999998,-17.84 -39.9999998,-40 v -60 c 0,-22.16 17.8399998,-40 39.9999998,-40 z" />
    <path
       id="rect2-17"
       style="fill:none;stroke:#ff0000;stroke-width:0.01"
       d="m 5.0500002,200.05 h 3 v 13 h -3 z" />
    <path
       id="rect2-4-9"
       style="fill:none;stroke:#ff0000;stroke-width:0.01"
       d="m 5.0500002,227.05 h 3 v 13 h -3 z" />
    <path
       id="rect2-1-2"
       style="fill:none;stroke:#ff0000;stroke-width:0.01"
       d="m 142.05,200.05 h 3 v 13 h -3 z" />
    <path
       id="rect2-4-6-5"
       style="fill:none;stroke:#ff0000;stroke-width:0.01"
       d="m 142.05,227.05 h 3 v 13 h -3 z" />
    <path
       id="rect5-4"
       style="fill:none;stroke:#ff0000;stroke-width:0.01"
       d="m 55.050003,287.04999 h 13 v 3 h -13 z" />
    <path
       id="rect5-7-2"
       style="fill:none;stroke:#ff0000;stroke-width:0.01"
       d="m 82.050003,287.04999 h 13 v 3 h -13 z" />
    <path
       id="rect5-8-3"
       style="fill:none;stroke:#ff0000;stroke-width:0.01"
       d="m 55.050003,150.05 h 13 v 3 h -13 z" />
    <path
       id="rect5-7-8-2"
       style="fill:none;stroke:#ff0000;stroke-width:0.01"
       d="m 82.050003,150.05 h 13 v 3 h -13 z" />
    <path
       id="path10"
       style="fill:none;stroke:#ff0000;stroke-width:0.01"
       d="M 78.988287,75 A 3.9882867,3.9882867 0 0 1 75,78.988287 3.9882867,3.9882867 0 0 1 71.011713,75 3.9882867,3.9882867 0 0 1 75,71.011713 3.9882867,3.9882867 0 0 1 78.988287,75 Z" />
  </g>
</svg>
