<?xml version="1.0" encoding="UTF-8" standalone="no"?>
<!-- Created with Inkscape (http://www.inkscape.org/) -->

<svg
   width="210mm"
   height="297mm"
   viewBox="0 0 210 297"
   version="1.1"
   id="svg1"
   inkscape:version="1.3.2 (091e20e, 2023-11-25, custom)"
   sodipodi:docname="Rand.svg"
   xmlns:inkscape="http://www.inkscape.org/namespaces/inkscape"
   xmlns:sodipodi="http://sodipodi.sourceforge.net/DTD/sodipodi-0.dtd"
   xmlns="http://www.w3.org/2000/svg"
   xmlns:svg="http://www.w3.org/2000/svg">
  <sodipodi:namedview
     id="namedview1"
     pagecolor="#ffffff"
     bordercolor="#000000"
     borderopacity="0.25"
     inkscape:showpageshadow="2"
     inkscape:pageopacity="0.0"
     inkscape:pagecheckerboard="0"
     inkscape:deskcolor="#d1d1d1"
     inkscape:document-units="mm"
     inkscape:zoom="1.4142136"
     inkscape:cx="210.01071"
     inkscape:cy="514.77374"
     inkscape:window-width="1440"
     inkscape:window-height="830"
     inkscape:window-x="-6"
     inkscape:window-y="-6"
     inkscape:window-maximized="1"
     inkscape:current-layer="layer1"
     showguides="true" />
  <defs
     id="defs1" />
  <g
     inkscape:label="Ebene 1"
     inkscape:groupmode="layer"
     id="layer1">
    <path
       id="rect3"
       style="fill:none;stroke:#ff0000;stroke-width:0.01;stroke-dasharray:none;stroke-opacity:1"
       d="M 3.04982,0.05 V 7.05009 H 0.05 V 20.049813 H 3.04982 V 102.84992 H 0.05 v 12.99973 h 2.99982 v 14.00018 H 0.05 v 13.00024 h 2.99982 v 82.79959 H 0.05 v 13.00024 h 2.99982 v 7.00009 h 33.99999 v -7.00009 h 2.99982 v -13.00024 h -2.99982 v -82.79959 h 2.99982 v -13.00024 h -2.99982 v -14.00018 h 2.99982 V 102.84992 H 37.04981 V 20.049813 h 2.99982 V 7.05009 H 37.04981 V 0.05 Z" />
    <path
       style="fill:none;stroke:#ff0000;stroke-width:0.01;stroke-dasharray:none"
       d="M 3,34.455503 H 32"
       id="path3-5-2" />
    <path
       style="fill:none;stroke:#ff0000;stroke-width:0.01;stroke-dasharray:none"
       d="M 3,58.455503 H 32"
       id="path3-4-4" />
    <path
       style="fill:none;stroke:#ff0000;stroke-width:0.01;stroke-dasharray:none"
       d="M 3,40.455503 H 32"
       id="path3-58-5" />
    <path
       style="fill:none;stroke:#ff0000;stroke-width:0.01;stroke-dasharray:none"
       d="M 3,46.455503 H 32"
       id="path3-58-0-7" />
    <path
       style="fill:none;stroke:#ff0000;stroke-width:0.01;stroke-dasharray:none"
       d="M 3,52.455503 H 32"
       id="path3-58-0-5-7" />
    <path
       style="fill:none;stroke:#ff0000;stroke-width:0.01;stroke-dasharray:none"
       d="M 3,76.455503 H 32"
       id="path3-4-6-6" />
    <path
       style="fill:none;stroke:#ff0000;stroke-width:0.01;stroke-dasharray:none"
       d="M 3,64.455503 H 32"
       id="path3-58-0-6-5" />
    <path
       style="fill:none;stroke:#ff0000;stroke-width:0.01;stroke-dasharray:none"
       d="M 3,70.455503 H 32"
       id="path3-58-0-5-6-6" />
    <path
       style="fill:none;stroke:#ff0000;stroke-width:0.01;stroke-dasharray:none"
       d="M 3,88.455503 H 32"
       id="path3-4-6-8-6" />
    <path
       style="fill:none;stroke:#ff0000;stroke-width:0.01;stroke-dasharray:none"
       d="M 3,82.455503 H 32"
       id="path3-58-0-5-6-2-3" />
    <path
       style="fill:none;stroke:#ff0000;stroke-width:0.01;stroke-dasharray:none"
       d="M 8,55.455503 H 37"
       id="path3-4-9-4" />
    <path
       style="fill:none;stroke:#ff0000;stroke-width:0.01;stroke-dasharray:none"
       d="M 8,37.455503 H 37"
       id="path3-58-8-1" />
    <path
       style="fill:none;stroke:#ff0000;stroke-width:0.01;stroke-dasharray:none"
       d="M 8,43.455503 H 37"
       id="path3-58-0-3-0" />
    <path
       style="fill:none;stroke:#ff0000;stroke-width:0.01;stroke-dasharray:none"
       d="M 8,49.455503 H 37"
       id="path3-58-0-5-4-9" />
    <path
       style="fill:none;stroke:#ff0000;stroke-width:0.01;stroke-dasharray:none"
       d="M 8,73.455503 H 37"
       id="path3-4-6-80-4" />
    <path
       style="fill:none;stroke:#ff0000;stroke-width:0.01;stroke-dasharray:none"
       d="M 8,61.455503 H 37"
       id="path3-58-0-6-1-7" />
    <path
       style="fill:none;stroke:#ff0000;stroke-width:0.01;stroke-dasharray:none"
       d="M 8,67.455503 H 37"
       id="path3-58-0-5-6-8-5" />
    <path
       style="fill:none;stroke:#ff0000;stroke-width:0.01;stroke-dasharray:none"
       d="M 8,85.455503 H 37"
       id="path3-4-6-8-1-6" />
    <path
       style="fill:none;stroke:#ff0000;stroke-width:0.01;stroke-dasharray:none"
       d="M 8,79.455503 H 37"
       id="path3-58-0-5-6-2-7-5" />
    <path
       style="fill:none;stroke:#ff0000;stroke-width:0.01;stroke-dasharray:none"
       d="M 3,157.25551 H 31.999997"
       id="path3-5-2-7" />
    <path
       style="fill:none;stroke:#ff0000;stroke-width:0.01;stroke-dasharray:none"
       d="M 3,181.2555 H 31.999997"
       id="path3-4-4-3" />
    <path
       style="fill:none;stroke:#ff0000;stroke-width:0.01;stroke-dasharray:none"
       d="M 3,163.2555 H 31.999997"
       id="path3-58-5-3" />
    <path
       style="fill:none;stroke:#ff0000;stroke-width:0.01;stroke-dasharray:none"
       d="M 3,169.2555 H 31.999997"
       id="path3-58-0-7-1" />
    <path
       style="fill:none;stroke:#ff0000;stroke-width:0.01;stroke-dasharray:none"
       d="M 3,175.2555 H 31.999997"
       id="path3-58-0-5-7-6" />
    <path
       style="fill:none;stroke:#ff0000;stroke-width:0.01;stroke-dasharray:none"
       d="M 3,199.2555 H 31.999997"
       id="path3-4-6-6-8" />
    <path
       style="fill:none;stroke:#ff0000;stroke-width:0.01;stroke-dasharray:none"
       d="M 3,187.2555 H 31.999997"
       id="path3-58-0-6-5-6" />
    <path
       style="fill:none;stroke:#ff0000;stroke-width:0.01;stroke-dasharray:none"
       d="M 3,193.2555 H 31.999997"
       id="path3-58-0-5-6-6-4" />
    <path
       style="fill:none;stroke:#ff0000;stroke-width:0.01;stroke-dasharray:none"
       d="M 3,211.2555 H 31.999997"
       id="path3-4-6-8-6-5" />
    <path
       style="fill:none;stroke:#ff0000;stroke-width:0.01;stroke-dasharray:none"
       d="M 3,205.2555 H 31.999997"
       id="path3-58-0-5-6-2-3-2" />
    <path
       style="fill:none;stroke:#ff0000;stroke-width:0.01;stroke-dasharray:none"
       d="M 8,178.2555 H 36.999997"
       id="path3-4-9-4-7" />
    <path
       style="fill:none;stroke:#ff0000;stroke-width:0.01;stroke-dasharray:none"
       d="M 8,160.2555 H 36.999997"
       id="path3-58-8-1-7" />
    <path
       style="fill:none;stroke:#ff0000;stroke-width:0.01;stroke-dasharray:none"
       d="M 8,166.2555 H 36.999997"
       id="path3-58-0-3-0-0" />
    <path
       style="fill:none;stroke:#ff0000;stroke-width:0.01;stroke-dasharray:none"
       d="M 8,172.2555 H 36.999997"
       id="path3-58-0-5-4-9-2" />
    <path
       style="fill:none;stroke:#ff0000;stroke-width:0.01;stroke-dasharray:none"
       d="M 8,196.2555 H 36.999997"
       id="path3-4-6-80-4-8" />
    <path
       style="fill:none;stroke:#ff0000;stroke-width:0.01;stroke-dasharray:none"
       d="M 8,184.2555 H 36.999997"
       id="path3-58-0-6-1-7-3" />
    <path
       style="fill:none;stroke:#ff0000;stroke-width:0.01;stroke-dasharray:none"
       d="M 8,190.2555 H 36.999997"
       id="path3-58-0-5-6-8-5-2" />
    <path
       style="fill:none;stroke:#ff0000;stroke-width:0.01;stroke-dasharray:none"
       d="M 8,208.2555 H 36.999997"
       id="path3-4-6-8-1-6-7" />
    <path
       style="fill:none;stroke:#ff0000;stroke-width:0.01;stroke-dasharray:none"
       d="M 8,202.2555 H 36.999997"
       id="path3-58-0-5-6-2-7-5-1" />
    <path
       id="rect3-4"
       style="fill:none;stroke:#ff0000;stroke-width:0.01;stroke-dasharray:none;stroke-opacity:1"
       d="M 53.04982,0.05 V 7.05009 H 50.05 v 12.999723 h 2.99982 V 102.84992 H 50.05 v 12.99973 h 2.99982 v 14.00018 H 50.05 v 13.00024 h 2.99982 v 82.79959 H 50.05 v 13.00024 h 2.99982 v 7.00009 h 33.999987 v -7.00009 h 2.99982 v -13.00024 h -2.99982 v -82.79959 h 2.99982 v -13.00024 h -2.99982 v -14.00018 h 2.99982 v -12.99973 h -2.99982 V 20.049813 h 2.99982 V 7.05009 h -2.99982 V 0.05 Z" />
    <path
       style="fill:none;stroke:#ff0000;stroke-width:0.01;stroke-dasharray:none"
       d="M 53,34.455503 H 81.999997"
       id="path3-5-2-9" />
    <path
       style="fill:none;stroke:#ff0000;stroke-width:0.01;stroke-dasharray:none"
       d="M 53,58.4555 H 81.999997"
       id="path3-4-4-6" />
    <path
       style="fill:none;stroke:#ff0000;stroke-width:0.01;stroke-dasharray:none"
       d="M 53,40.4555 H 81.999997"
       id="path3-58-5-0" />
    <path
       style="fill:none;stroke:#ff0000;stroke-width:0.01;stroke-dasharray:none"
       d="M 53,46.4555 H 81.999997"
       id="path3-58-0-7-6" />
    <path
       style="fill:none;stroke:#ff0000;stroke-width:0.01;stroke-dasharray:none"
       d="M 53,52.4555 H 81.999997"
       id="path3-58-0-5-7-3" />
    <path
       style="fill:none;stroke:#ff0000;stroke-width:0.01;stroke-dasharray:none"
       d="M 53,76.4555 H 81.999997"
       id="path3-4-6-6-3" />
    <path
       style="fill:none;stroke:#ff0000;stroke-width:0.01;stroke-dasharray:none"
       d="M 53,64.4555 H 81.999997"
       id="path3-58-0-6-5-2" />
    <path
       style="fill:none;stroke:#ff0000;stroke-width:0.01;stroke-dasharray:none"
       d="M 53,70.4555 H 81.999997"
       id="path3-58-0-5-6-6-5" />
    <path
       style="fill:none;stroke:#ff0000;stroke-width:0.01;stroke-dasharray:none"
       d="M 53,88.4555 H 81.999997"
       id="path3-4-6-8-6-9" />
    <path
       style="fill:none;stroke:#ff0000;stroke-width:0.01;stroke-dasharray:none"
       d="M 53,82.4555 H 81.999997"
       id="path3-58-0-5-6-2-3-1" />
    <path
       style="fill:none;stroke:#ff0000;stroke-width:0.01;stroke-dasharray:none"
       d="M 58,55.4555 H 86.999997"
       id="path3-4-9-4-0" />
    <path
       style="fill:none;stroke:#ff0000;stroke-width:0.01;stroke-dasharray:none"
       d="M 58,37.4555 H 86.999997"
       id="path3-58-8-1-5" />
    <path
       style="fill:none;stroke:#ff0000;stroke-width:0.01;stroke-dasharray:none"
       d="M 58,43.4555 H 86.999997"
       id="path3-58-0-3-0-3" />
    <path
       style="fill:none;stroke:#ff0000;stroke-width:0.01;stroke-dasharray:none"
       d="M 58,49.4555 H 86.999997"
       id="path3-58-0-5-4-9-4" />
    <path
       style="fill:none;stroke:#ff0000;stroke-width:0.01;stroke-dasharray:none"
       d="M 58,73.4555 H 86.999997"
       id="path3-4-6-80-4-2" />
    <path
       style="fill:none;stroke:#ff0000;stroke-width:0.01;stroke-dasharray:none"
       d="M 58,61.4555 H 86.999997"
       id="path3-58-0-6-1-7-30" />
    <path
       style="fill:none;stroke:#ff0000;stroke-width:0.01;stroke-dasharray:none"
       d="M 58,67.4555 H 86.999997"
       id="path3-58-0-5-6-8-5-7" />
    <path
       style="fill:none;stroke:#ff0000;stroke-width:0.01;stroke-dasharray:none"
       d="M 58,85.4555 H 86.999997"
       id="path3-4-6-8-1-6-5" />
    <path
       style="fill:none;stroke:#ff0000;stroke-width:0.01;stroke-dasharray:none"
       d="M 58,79.4555 H 86.999997"
       id="path3-58-0-5-6-2-7-5-3" />
    <path
       style="fill:none;stroke:#ff0000;stroke-width:0.01;stroke-dasharray:none"
       d="M 53,157.25551 H 81.999997"
       id="path3-5-2-7-9" />
    <path
       style="fill:none;stroke:#ff0000;stroke-width:0.01;stroke-dasharray:none"
       d="M 53,181.2555 H 81.999997"
       id="path3-4-4-3-2" />
    <path
       style="fill:none;stroke:#ff0000;stroke-width:0.01;stroke-dasharray:none"
       d="M 53,163.2555 H 81.999997"
       id="path3-58-5-3-0" />
    <path
       style="fill:none;stroke:#ff0000;stroke-width:0.01;stroke-dasharray:none"
       d="M 53,169.2555 H 81.999997"
       id="path3-58-0-7-1-7" />
    <path
       style="fill:none;stroke:#ff0000;stroke-width:0.01;stroke-dasharray:none"
       d="M 53,175.2555 H 81.999997"
       id="path3-58-0-5-7-6-4" />
    <path
       style="fill:none;stroke:#ff0000;stroke-width:0.01;stroke-dasharray:none"
       d="M 53,199.2555 H 81.999997"
       id="path3-4-6-6-8-6" />
    <path
       style="fill:none;stroke:#ff0000;stroke-width:0.01;stroke-dasharray:none"
       d="M 53,187.2555 H 81.999997"
       id="path3-58-0-6-5-6-7" />
    <path
       style="fill:none;stroke:#ff0000;stroke-width:0.01;stroke-dasharray:none"
       d="M 53,193.2555 H 81.999997"
       id="path3-58-0-5-6-6-4-8" />
    <path
       style="fill:none;stroke:#ff0000;stroke-width:0.01;stroke-dasharray:none"
       d="M 53,211.2555 H 81.999997"
       id="path3-4-6-8-6-5-4" />
    <path
       style="fill:none;stroke:#ff0000;stroke-width:0.01;stroke-dasharray:none"
       d="M 53,205.2555 H 81.999997"
       id="path3-58-0-5-6-2-3-2-7" />
    <path
       style="fill:none;stroke:#ff0000;stroke-width:0.01;stroke-dasharray:none"
       d="M 58,178.2555 H 86.999997"
       id="path3-4-9-4-7-2" />
    <path
       style="fill:none;stroke:#ff0000;stroke-width:0.01;stroke-dasharray:none"
       d="M 58,160.2555 H 86.999997"
       id="path3-58-8-1-7-3" />
    <path
       style="fill:none;stroke:#ff0000;stroke-width:0.01;stroke-dasharray:none"
       d="M 58,166.2555 H 86.999997"
       id="path3-58-0-3-0-0-5" />
    <path
       style="fill:none;stroke:#ff0000;stroke-width:0.01;stroke-dasharray:none"
       d="M 58,172.2555 H 86.999997"
       id="path3-58-0-5-4-9-2-4" />
    <path
       style="fill:none;stroke:#ff0000;stroke-width:0.01;stroke-dasharray:none"
       d="M 58,196.2555 H 86.999997"
       id="path3-4-6-80-4-8-9" />
    <path
       style="fill:none;stroke:#ff0000;stroke-width:0.01;stroke-dasharray:none"
       d="M 58,184.2555 H 86.999997"
       id="path3-58-0-6-1-7-3-4" />
    <path
       style="fill:none;stroke:#ff0000;stroke-width:0.01;stroke-dasharray:none"
       d="M 58,190.2555 H 86.999997"
       id="path3-58-0-5-6-8-5-2-5" />
    <path
       style="fill:none;stroke:#ff0000;stroke-width:0.01;stroke-dasharray:none"
       d="M 58,208.2555 H 86.999997"
       id="path3-4-6-8-1-6-7-0" />
    <path
       style="fill:none;stroke:#ff0000;stroke-width:0.01;stroke-dasharray:none"
       d="M 58,202.2555 H 86.999997"
       id="path3-58-0-5-6-2-7-5-1-2" />
    <path
       id="path9"
       style="fill:none;stroke:#ff0000;stroke-width:0.01542099;stroke-dasharray:none"
       inkscape:transform-center-y="-2.8816409"
       transform="matrix(0.64867481,0,0,0.64825917,23.803192,-33.858604)"
       d="m 141.4964,88.403083 -15.39863,0 -15.39863,0 7.69932,-13.335604 7.69931,-13.335605 7.69932,13.335604 z" />
    <path
       id="path10"
       style="fill:none;stroke:#ff0000;stroke-width:0.01;stroke-dasharray:none"
       d="m 109.43429,17.71278 a 3.988287,3.9882867 0 0 1 -3.98828,3.988287 3.988287,3.9882867 0 0 1 -3.98829,-3.988287 3.988287,3.9882867 0 0 1 3.98829,-3.988287 3.988287,3.9882867 0 0 1 3.98828,3.988287 z" />
    <path
       id="path9-6"
       style="fill:none;stroke:#ff0000;stroke-width:0.01542099;stroke-dasharray:none"
       inkscape:transform-center-y="-2.8816409"
       transform="matrix(0.64867481,0,0,0.64825917,44.953695,-33.718194)"
       d="m 141.4964,88.403083 -15.39863,0 -15.39863,0 7.69932,-13.335604 7.69931,-13.335605 7.69932,13.335604 z" />
    <path
       id="path10-2"
       style="fill:none;stroke:#ff0000;stroke-width:0.01;stroke-dasharray:none"
       d="m 130.5848,17.853191 a 3.988287,3.9882867 0 0 1 -3.98829,3.988287 3.988287,3.9882867 0 0 1 -3.98829,-3.988287 3.988287,3.9882867 0 0 1 3.98829,-3.988286 3.988287,3.9882867 0 0 1 3.98829,3.988286 z" />
    <path
       id="rect11"
       style="fill:none;stroke:#ff0000;stroke-width:0.01;stroke-dasharray:none"
       d="m 97.47319,32.927605 h 20 V 147.9276 h -20 z" />
    <path
       id="rect11-1"
       style="fill:none;stroke:#ff0000;stroke-width:0.01;stroke-dasharray:none"
       d="m 120.39792,32.820831 h 20 V 147.82083 h -20 z" />
    <path
       id="rect11-1-3"
       style="fill:none;stroke:#ff0000;stroke-width:0.01;stroke-dasharray:none"
       d="m 143.15208,33.085419 h 20 V 148.08542 h -20 z" />
    <rect
       style="fill:none;stroke:#ff0000;stroke-width:0.01;stroke-dasharray:none"
       id="rect1"
       width="20.499348"
       height="12.849346"
       x="9.7503262"
       y="102.85033" />
    <circle
       style="fill:none;stroke:#ff0000;stroke-width:0.01;stroke-dasharray:none"
       id="path2"
       cx="84.949997"
       cy="122.85"
       r="2.0999999" />
    <path
       style="fill:none;stroke:#ff0000;stroke-width:0.01;stroke-dasharray:none"
       d="m 84.926563,120.75404 h 2.163212"
       id="path3" />
    <path
       style="fill:none;stroke:#ff0000;stroke-width:0.01;stroke-dasharray:none"
       d="m 84.903177,124.95184 2.116439,-0.0117"
       id="path4" />
  </g>
</svg>
